<svg xmlns="http://www.w3.org/2000/svg" viewBox="0 0 1459.1999999999998 572.9" preserveAspectRatio="xMidYMid meet"><g class="main"><g><path d="M184,271.191C311.4,271.191,311.4,271.221,438.8,271.221" stroke="#bbb" stroke-width="2.3054812834224596" fill="none" opacity="0.6"/><path d="M184,442.146C311.4,442.146,311.4,442.219,438.8,442.219" stroke="#bbb" stroke-width="2.3054812834224596" fill="none" opacity="0.6"/><path d="M184,96.093C311.4,96.093,311.4,96.105,438.8,96.105" stroke="#bbb" stroke-width="2.3054812834224596" fill="none" opacity="0.6"/><path d="M184,290.106C311.4,290.106,311.4,290.138,438.8,290.138" stroke="#bbb" stroke-width="2.3054812834224596" fill="none" opacity="0.6"/><path d="M184,461.055C311.4,461.055,311.4,461.136,438.8,461.136" stroke="#bbb" stroke-width="2.3054812834224596" fill="none" opacity="0.6"/><path d="M184,115.008C311.4,115.008,311.4,115.022,438.8,115.022" stroke="#bbb" stroke-width="2.3054812834224596" fill="none" opacity="0.6"/><path d="M462.8,273.527C590.2,273.527,590.2,40.692,717.6,40.692" stroke="#bbb" stroke-width="1.383288770053476" fill="none" opacity="0.6"/><path d="M462.8,270.76C590.2,270.76,590.2,143.272,717.6,143.272" stroke="#bbb" stroke-width="1.383288770053476" fill="none" opacity="0.6"/><path d="M462.8,276.293C590.2,276.293,590.2,245.852,717.6,245.852" stroke="#bbb" stroke-width="1.383288770053476" fill="none" opacity="0.6"/><path d="M462.8,274.91C590.2,274.91,590.2,348.432,717.6,348.432" stroke="#bbb" stroke-width="1.383288770053476" fill="none" opacity="0.6"/><path d="M462.8,272.144C590.2,272.144,590.2,451.012,717.6,451.012" stroke="#bbb" stroke-width="1.383288770053476" fill="none" opacity="0.6"/><path d="M462.8,445.908C590.2,445.908,590.2,109.078,717.6,109.078" stroke="#bbb" stroke-width="1.383288770053476" fill="none" opacity="0.6"/><path d="M462.8,441.758C590.2,441.758,590.2,211.658,717.6,211.658" stroke="#bbb" stroke-width="1.383288770053476" fill="none" opacity="0.6"/><path d="M462.8,443.141C590.2,443.141,590.2,314.238,717.6,314.238" stroke="#bbb" stroke-width="1.383288770053476" fill="none" opacity="0.6"/><path d="M462.8,444.525C590.2,444.525,590.2,416.818,717.6,416.818" stroke="#bbb" stroke-width="1.383288770053476" fill="none" opacity="0.6"/><path d="M462.8,447.291C590.2,447.291,590.2,519.398,717.6,519.398" stroke="#bbb" stroke-width="1.383288770053476" fill="none" opacity="0.6"/><path d="M462.8,99.794C590.2,99.794,590.2,74.885,717.6,74.885" stroke="#bbb" stroke-width="1.383288770053476" fill="none" opacity="0.6"/><path d="M462.8,97.028C590.2,97.028,590.2,177.465,717.6,177.465" stroke="#bbb" stroke-width="1.383288770053476" fill="none" opacity="0.6"/><path d="M462.8,98.411C590.2,98.411,590.2,280.045,717.6,280.045" stroke="#bbb" stroke-width="1.383288770053476" fill="none" opacity="0.6"/><path d="M462.8,95.644C590.2,95.644,590.2,382.625,717.6,382.625" stroke="#bbb" stroke-width="1.383288770053476" fill="none" opacity="0.6"/><path d="M462.8,101.178C590.2,101.178,590.2,485.205,717.6,485.205" stroke="#bbb" stroke-width="1.383288770053476" fill="none" opacity="0.6"/><path d="M462.8,292.443C590.2,292.443,590.2,42.075,717.6,42.075" stroke="#bbb" stroke-width="1.383288770053476" fill="none" opacity="0.6"/><path d="M462.8,289.677C590.2,289.677,590.2,144.655,717.6,144.655" stroke="#bbb" stroke-width="1.383288770053476" fill="none" opacity="0.6"/><path d="M462.8,295.21C590.2,295.21,590.2,247.235,717.6,247.235" stroke="#bbb" stroke-width="1.383288770053476" fill="none" opacity="0.6"/><path d="M462.8,293.827C590.2,293.827,590.2,349.815,717.6,349.815" stroke="#bbb" stroke-width="1.383288770053476" fill="none" opacity="0.6"/><path d="M462.8,291.06C590.2,291.06,590.2,452.395,717.6,452.395" stroke="#bbb" stroke-width="1.383288770053476" fill="none" opacity="0.6"/><path d="M462.8,464.824C590.2,464.824,590.2,110.462,717.6,110.462" stroke="#bbb" stroke-width="1.383288770053476" fill="none" opacity="0.6"/><path d="M462.8,460.675C590.2,460.675,590.2,213.042,717.6,213.042" stroke="#bbb" stroke-width="1.383288770053476" fill="none" opacity="0.6"/><path d="M462.8,462.058C590.2,462.058,590.2,315.622,717.6,315.622" stroke="#bbb" stroke-width="1.383288770053476" fill="none" opacity="0.6"/><path d="M462.8,463.441C590.2,463.441,590.2,418.202,717.6,418.202" stroke="#bbb" stroke-width="1.383288770053476" fill="none" opacity="0.6"/><path d="M462.8,466.208C590.2,466.208,590.2,520.782,717.6,520.782" stroke="#bbb" stroke-width="1.383288770053476" fill="none" opacity="0.6"/><path d="M462.8,118.711C590.2,118.711,590.2,76.268,717.6,76.268" stroke="#bbb" stroke-width="1.383288770053476" fill="none" opacity="0.6"/><path d="M462.8,115.944C590.2,115.944,590.2,178.848,717.6,178.848" stroke="#bbb" stroke-width="1.383288770053476" fill="none" opacity="0.6"/><path d="M462.8,117.327C590.2,117.327,590.2,281.428,717.6,281.428" stroke="#bbb" stroke-width="1.383288770053476" fill="none" opacity="0.6"/><path d="M462.8,114.561C590.2,114.561,590.2,384.008,717.6,384.008" stroke="#bbb" stroke-width="1.383288770053476" fill="none" opacity="0.6"/><path d="M462.8,120.094C590.2,120.094,590.2,486.588,717.6,486.588" stroke="#bbb" stroke-width="1.383288770053476" fill="none" opacity="0.6"/><path d="M462.8,317.504C590.2,317.504,590.2,43.458,717.6,43.458" stroke="#ff5733" stroke-width="1.383288770053476" fill="none" opacity="0.6"/><path d="M462.8,311.97C590.2,311.97,590.2,146.038,717.6,146.038" stroke="#ff5733" stroke-width="1.383288770053476" fill="none" opacity="0.6"/><path d="M462.8,325.803C590.2,325.803,590.2,248.618,717.6,248.618" stroke="#ff5733" stroke-width="1.383288770053476" fill="none" opacity="0.6"/><path d="M462.8,321.654C590.2,321.654,590.2,351.198,717.6,351.198" stroke="#ff5733" stroke-width="1.383288770053476" fill="none" opacity="0.6"/><path d="M462.8,316.12C590.2,316.12,590.2,453.778,717.6,453.778" stroke="#ff5733" stroke-width="1.383288770053476" fill="none" opacity="0.6"/><path d="M462.8,314.045C729.6,314.045,729.6,257.117,996.4,257.117" stroke="#ff5733" stroke-width="2.766577540106952" fill="none" opacity="0.6"/><path d="M462.8,309.896C729.6,309.896,729.6,166.27,996.4,166.27" stroke="#ff5733" stroke-width="2.766577540106952" fill="none" opacity="0.6"/><path d="M462.8,319.579C729.6,319.579,729.6,351.193,996.4,351.193" stroke="#ff5733" stroke-width="2.766577540106952" fill="none" opacity="0.6"/><path d="M462.8,323.728C729.6,323.728,729.6,450.801,996.4,450.801" stroke="#ff5733" stroke-width="2.766577540106952" fill="none" opacity="0.6"/><path d="M741.6,47.608C869,47.608,869,254.581,996.4,254.581" stroke="#bbb" stroke-width="2.3054812834224596" fill="none" opacity="0.6"/><path d="M741.6,43.228C869,43.228,869,161.659,996.4,161.659" stroke="#bbb" stroke-width="6.4553475935828875" fill="none" opacity="0.6"/><path d="M741.6,52.68C869,52.68,869,345.89,996.4,345.89" stroke="#bbb" stroke-width="7.838636363636363" fill="none" opacity="0.6"/><path d="M741.6,59.827C869,59.827,869,446.19,996.4,446.19" stroke="#bbb" stroke-width="6.4553475935828875" fill="none" opacity="0.6"/><path d="M741.6,84.337C869,84.337,869,226.224,996.4,226.224" stroke="#e10600" stroke-width="10.144117647058822" fill="none" opacity="0.6"/><path d="M741.6,76.729C869,76.729,869,143.446,996.4,143.446" stroke="#bbb" stroke-width="5.072058823529411" fill="none" opacity="0.6"/><path d="M741.6,91.254C869,91.254,869,316.61,996.4,316.61" stroke="#bbb" stroke-width="3.6887700534759356" fill="none" opacity="0.6"/><path d="M741.6,95.173C869,95.173,869,430.282,996.4,430.282" stroke="#bbb" stroke-width="4.149866310160427" fill="none" opacity="0.6"/><path d="M741.6,113.689C869,113.689,869,288.702,996.4,288.702" stroke="#bbb" stroke-width="4.149866310160427" fill="none" opacity="0.6"/><path d="M741.6,110.001C869,110.001,869,190.477,996.4,190.477" stroke="#bbb" stroke-width="3.2276737967914437" fill="none" opacity="0.6"/><path d="M741.6,120.375C869,120.375,869,390.847,996.4,390.847" stroke="#bbb" stroke-width="9.221925133689838" fill="none" opacity="0.6"/><path d="M741.6,128.444C869,128.444,869,487.919,996.4,487.919" stroke="#bbb" stroke-width="6.916443850267379" fill="none" opacity="0.6"/><path d="M741.6,151.571C869,151.571,869,244.898,996.4,244.898" stroke="#bbb" stroke-width="8.760828877005347" fill="none" opacity="0.6"/><path d="M741.6,144.885C869,144.885,869,151.054,996.4,151.054" stroke="#bbb" stroke-width="4.610962566844919" fill="none" opacity="0.6"/><path d="M741.6,159.179C869,159.179,869,325.371,996.4,325.371" stroke="#bbb" stroke-width="6.4553475935828875" fill="none" opacity="0.6"/><path d="M741.6,164.021C869,164.021,869,441.348,996.4,441.348" stroke="#bbb" stroke-width="3.2276737967914437" fill="none" opacity="0.6"/><path d="M741.6,191.067C869,191.067,869,211.469,996.4,211.469" stroke="#bbb" stroke-width="6.4553475935828875" fill="none" opacity="0.6"/><path d="M741.6,182.306C869,182.306,869,126.616,996.4,126.616" stroke="#e10600" stroke-width="11.066310160427808" fill="none" opacity="0.6"/><path d="M741.6,195.678C869,195.678,869,306.927,996.4,306.927" stroke="#bbb" stroke-width="2.766577540106952" fill="none" opacity="0.6"/><path d="M741.6,198.214C869,198.214,869,425.671,996.4,425.671" stroke="#bbb" stroke-width="2.3054812834224596" fill="none" opacity="0.6"/><path d="M741.6,218.805C869,218.805,869,272.334,996.4,272.334" stroke="#bbb" stroke-width="7.377540106951871" fill="none" opacity="0.6"/><path d="M741.6,213.042C869,213.042,869,176.183,996.4,176.183" stroke="#bbb" stroke-width="4.149866310160427" fill="none" opacity="0.6"/><path d="M741.6,225.952C869,225.952,869,371.25,996.4,371.25" stroke="#bbb" stroke-width="6.916443850267379" fill="none" opacity="0.6"/><path d="M741.6,231.716C869,231.716,869,468.784,996.4,468.784" stroke="#bbb" stroke-width="4.610962566844919" fill="none" opacity="0.6"/><path d="M741.6,249.771C869,249.771,869,268.184,996.4,268.184" stroke="#bbb" stroke-width="1" fill="none" opacity="0.6"/><path d="M741.6,247.235C869,247.235,869,172.034,996.4,172.034" stroke="#bbb" stroke-width="4.149866310160427" fill="none" opacity="0.6"/><path d="M741.6,256.687C869,256.687,869,361.337,996.4,361.337" stroke="#e10600" stroke-width="12.910695187165775" fill="none" opacity="0.6"/><path d="M741.6,265.679C869,265.679,869,463.942,996.4,463.942" stroke="#bbb" stroke-width="5.072058823529411" fill="none" opacity="0.6"/><path d="M741.6,291.342C869,291.342,869,217.924,996.4,217.924" stroke="#bbb" stroke-width="6.4553475935828875" fill="none" opacity="0.6"/><path d="M741.6,283.734C869,283.734,869,136.529,996.4,136.529" stroke="#bbb" stroke-width="8.760828877005347" fill="none" opacity="0.6"/><path d="M741.6,297.797C869,297.797,869,311.538,996.4,311.538" stroke="#bbb" stroke-width="6.4553475935828875" fill="none" opacity="0.6"/><path d="M741.6,301.717C869,301.717,869,427.515,996.4,427.515" stroke="#bbb" stroke-width="1.383288770053476" fill="none" opacity="0.6"/><path d="M741.6,320.924C869,320.924,869,278.789,996.4,278.789" stroke="#bbb" stroke-width="5.533155080213904" fill="none" opacity="0.6"/><path d="M741.6,315.852C869,315.852,869,180.564,996.4,180.564" stroke="#bbb" stroke-width="4.610962566844919" fill="none" opacity="0.6"/><path d="M741.6,327.38C869,327.38,869,378.397,996.4,378.397" stroke="#bbb" stroke-width="7.377540106951871" fill="none" opacity="0.6"/><path d="M741.6,333.835C869,333.835,869,473.856,996.4,473.856" stroke="#bbb" stroke-width="5.533155080213904" fill="none" opacity="0.6"/><path d="M741.6,354.656C869,354.656,869,263.112,996.4,263.112" stroke="#bbb" stroke-width="9.221925133689838" fill="none" opacity="0.6"/><path d="M741.6,348.893C869,348.893,869,168.806,996.4,168.806" stroke="#bbb" stroke-width="2.3054812834224596" fill="none" opacity="0.6"/><path d="M741.6,360.42C869,360.42,869,353.729,996.4,353.729" stroke="#bbb" stroke-width="2.3054812834224596" fill="none" opacity="0.6"/><path d="M741.6,366.184C869,366.184,869,456.795,996.4,456.795" stroke="#bbb" stroke-width="9.221925133689838" fill="none" opacity="0.6"/><path d="M741.6,402.683C869,402.683,869,206.858,996.4,206.858" stroke="#bbb" stroke-width="2.766577540106952" fill="none" opacity="0.6"/><path d="M741.6,391.616C869,391.616,869,111.399,996.4,111.399" stroke="#e10600" stroke-width="19.36604278074866" fill="none" opacity="0.6"/><path d="M741.6,404.297C869,404.297,869,305.313,996.4,305.313" stroke="#bbb" stroke-width="1" fill="none" opacity="0.6"/><path d="M741.6,404.758C869,404.758,869,424.288,996.4,424.288" stroke="#bbb" stroke-width="1" fill="none" opacity="0.6"/><path d="M741.6,424.657C869,424.657,869,284.092,996.4,284.092" stroke="#bbb" stroke-width="5.072058823529411" fill="none" opacity="0.6"/><path d="M741.6,419.124C869,419.124,869,185.867,996.4,185.867" stroke="#bbb" stroke-width="5.994251336898396" fill="none" opacity="0.6"/><path d="M741.6,429.268C869,429.268,869,384.161,996.4,384.161" stroke="#bbb" stroke-width="4.149866310160427" fill="none" opacity="0.6"/><path d="M741.6,435.262C869,435.262,869,480.542,996.4,480.542" stroke="#bbb" stroke-width="7.838636363636363" fill="none" opacity="0.6"/><path d="M741.6,457.467C869,457.467,869,251.354,996.4,251.354" stroke="#bbb" stroke-width="4.149866310160427" fill="none" opacity="0.6"/><path d="M741.6,452.856C869,452.856,869,155.895,996.4,155.895" stroke="#bbb" stroke-width="5.072058823529411" fill="none" opacity="0.6"/><path d="M741.6,466.228C869,466.228,869,335.285,996.4,335.285" stroke="#e10600" stroke-width="13.371791443850267" fill="none" opacity="0.6"/><path d="M741.6,472.914C869,472.914,869,442.962,996.4,442.962" stroke="#bbb" stroke-width="1" fill="none" opacity="0.6"/><path d="M741.6,491.891C869,491.891,869,235.907,996.4,235.907" stroke="#bbb" stroke-width="9.221925133689838" fill="none" opacity="0.6"/><path d="M741.6,485.897C869,485.897,869,147.365,996.4,147.365" stroke="#bbb" stroke-width="2.766577540106952" fill="none" opacity="0.6"/><path d="M741.6,498.346C869,498.346,869,320.299,996.4,320.299" stroke="#bbb" stroke-width="3.6887700534759356" fill="none" opacity="0.6"/><path d="M741.6,503.879C869,503.879,869,436.046,996.4,436.046" stroke="#bbb" stroke-width="7.377540106951871" fill="none" opacity="0.6"/><path d="M741.6,521.243C869,521.243,869,291.93,996.4,291.93" stroke="#bbb" stroke-width="2.3054812834224596" fill="none" opacity="0.6"/><path d="M741.6,519.398C869,519.398,869,192.783,996.4,192.783" stroke="#bbb" stroke-width="1.383288770053476" fill="none" opacity="0.6"/><path d="M741.6,530.695C869,530.695,869,403.757,996.4,403.757" stroke="#e10600" stroke-width="16.59946524064171" fill="none" opacity="0.6"/><path d="M741.6,540.148C869,540.148,869,492.53,996.4,492.53" stroke="#bbb" stroke-width="2.3054812834224596" fill="none" opacity="0.6"/><path d="M1020.4,211.238C1147.8,211.238,1147.8,210.444,1275.2,210.444" stroke="#e10600" stroke-width="11.5274064171123" fill="none" opacity="0.6"/><path d="M1020.4,107.48C1147.8,107.48,1147.8,106.721,1275.2,106.721" stroke="#e10600" stroke-width="11.5274064171123" fill="none" opacity="0.6"/><path d="M1020.4,310.847C1147.8,310.847,1147.8,310.001,1275.2,310.001" stroke="#e10600" stroke-width="11.5274064171123" fill="none" opacity="0.6"/><path d="M1020.4,429.821C1147.8,429.821,1147.8,428.907,1275.2,428.907" stroke="#e10600" stroke-width="11.5274064171123" fill="none" opacity="0.6"/></g><g><g><rect x="160" y="270.0387245479422" height="2.3054812834224094" width="24" fill="#e10600" stroke="#fff"/><text x="192" y="271.1914651896534" dy="0.35em" text-anchor="start" fill="#000" font-family="Suisse Works, Georgia, serif" font-size="12px">Exclusividad Ferrari</text></g><g><rect x="160" y="440.99346268647605" height="2.3054812834224094" width="24" fill="#e10600" stroke="#fff"/><text x="192" y="442.14620332818726" dy="0.35em" text-anchor="start" fill="#000" font-family="Suisse Works, Georgia, serif" font-size="12px">Gestión de Riesgo</text></g><g><rect x="160" y="94.94010752727579" height="2.3054812834224663" width="24" fill="#e10600" stroke="#fff"/><text x="192" y="96.09284816898702" dy="0.35em" text-anchor="start" fill="#000" font-family="Suisse Works, Georgia, serif" font-size="12px">Experiencia Cliente</text></g><g><rect x="160" y="288.95359317077424" height="2.3054812834224663" width="24" fill="#e10600" stroke="#fff"/><text x="192" y="290.10633381248545" dy="0.35em" text-anchor="start" fill="#000" font-family="Suisse Works, Georgia, serif" font-size="12px">Eficiencia Productiva</text></g><g><rect x="160" y="459.9021235335302" height="2.3054812834224663" width="24" fill="#e10600" stroke="#fff"/><text x="192" y="461.0548641752414" dy="0.35em" text-anchor="start" fill="#000" font-family="Suisse Works, Georgia, serif" font-size="12px">Sostenibilidad</text></g><g><rect x="160" y="113.85497997668264" height="2.305481283422523" width="24" fill="#e10600" stroke="#fff"/><text x="192" y="115.0077206183939" dy="0.35em" text-anchor="start" fill="#000" font-family="Suisse Works, Georgia, serif" font-size="12px">Planificación Estratégica</text></g><g><rect x="438.79999999999995" y="270.0686249207031" height="6.916443850267456" width="24" fill="#990000" stroke="#fff"/><text x="470.79999999999995" y="273.5268468458368" dy="0.35em" text-anchor="start" fill="#000" font-family="Suisse Works, Georgia, serif" font-size="12px">VR</text></g><g><rect x="438.79999999999995" y="441.0665309469469" height="6.916443850267342" width="24" fill="#990000" stroke="#fff"/><text x="470.79999999999995" y="444.52475287208057" dy="0.35em" text-anchor="start" fill="#000" font-family="Suisse Works, Georgia, serif" font-size="12px">ASP</text></g><g><rect x="438.79999999999995" y="94.95272430106071" height="6.916443850267342" width="24" fill="#990000" stroke="#fff"/><text x="470.79999999999995" y="98.41094622619438" dy="0.35em" text-anchor="start" fill="#000" font-family="Suisse Works, Georgia, serif" font-size="12px">NPS</text></g><g><rect x="438.79999999999995" y="288.98506877097054" height="6.916443850267399" width="24" fill="#990000" stroke="#fff"/><text x="470.79999999999995" y="292.4432906961042" dy="0.35em" text-anchor="start" fill="#000" font-family="Suisse Works, Georgia, serif" font-size="12px">Tiempo</text></g><g><rect x="438.79999999999995" y="459.98297479721424" height="6.916443850267342" width="24" fill="#990000" stroke="#fff"/><text x="470.79999999999995" y="463.4411967223479" dy="0.35em" text-anchor="start" fill="#000" font-family="Suisse Works, Georgia, serif" font-size="12px">Riesgo</text></g><g><rect x="438.79999999999995" y="113.86916815132805" height="6.916443850267342" width="24" fill="#990000" stroke="#fff"/><text x="470.79999999999995" y="117.32739007646173" dy="0.35em" text-anchor="start" fill="#000" font-family="Suisse Works, Georgia, serif" font-size="12px">ESG</text></g><g><rect x="438.79999999999995" y="308.5122657956494" height="17.982754010695203" width="24" fill="#990000" stroke="#fff"/><text x="470.79999999999995" y="317.503642800997" dy="0.35em" text-anchor="start" fill="#000" font-family="Suisse Works, Georgia, serif" font-size="12px">TOWS</text></g><g><rect x="717.5999999999999" y="40" height="23.054812834224606" width="24" fill="#d9d9d9" stroke="#fff"/><text x="749.5999999999999" y="51.5274064171123" dy="0.35em" text-anchor="start" fill="#000" font-family="Suisse Works, Georgia, serif" font-size="12px">2011</text></g><g><rect x="717.5999999999999" y="74.19333333333333" height="23.054812834224663" width="24" fill="#d9d9d9" stroke="#fff"/><text x="749.5999999999999" y="85.72073975044566" dy="0.35em" text-anchor="start" fill="#000" font-family="Suisse Works, Georgia, serif" font-size="12px">2012</text></g><g><rect x="717.5999999999999" y="108.38666666666667" height="23.515909090909176" width="24" fill="#d9d9d9" stroke="#fff"/><text x="749.5999999999999" y="120.14462121212125" dy="0.35em" text-anchor="start" fill="#000" font-family="Suisse Works, Georgia, serif" font-size="12px">2013</text></g><g><rect x="717.5999999999999" y="142.58" height="23.054812834224606" width="24" fill="#d9d9d9" stroke="#fff"/><text x="749.5999999999999" y="154.10740641711232" dy="0.35em" text-anchor="start" fill="#000" font-family="Suisse Works, Georgia, serif" font-size="12px">2014</text></g><g><rect x="717.5999999999999" y="176.77333333333334" height="22.593716577540164" width="24" fill="#d9d9d9" stroke="#fff"/><text x="749.5999999999999" y="188.07019162210344" dy="0.35em" text-anchor="start" fill="#000" font-family="Suisse Works, Georgia, serif" font-size="12px">2015</text></g><g><rect x="717.5999999999999" y="210.96666666666667" height="23.054812834224606" width="24" fill="#d9d9d9" stroke="#fff"/><text x="749.5999999999999" y="222.49407308377897" dy="0.35em" text-anchor="start" fill="#000" font-family="Suisse Works, Georgia, serif" font-size="12px">2016</text></g><g><rect x="717.5999999999999" y="245.16000000000003" height="23.054812834224663" width="24" fill="#d9d9d9" stroke="#fff"/><text x="749.5999999999999" y="256.68740641711236" dy="0.35em" text-anchor="start" fill="#000" font-family="Suisse Works, Georgia, serif" font-size="12px">2017</text></g><g><rect x="717.5999999999999" y="279.35333333333335" height="23.054812834224606" width="24" fill="#d9d9d9" stroke="#fff"/><text x="749.5999999999999" y="290.8807397504456" dy="0.35em" text-anchor="start" fill="#000" font-family="Suisse Works, Georgia, serif" font-size="12px">2018</text></g><g><rect x="717.5999999999999" y="313.5466666666667" height="23.054812834224663" width="24" fill="#d9d9d9" stroke="#fff"/><text x="749.5999999999999" y="325.074073083779" dy="0.35em" text-anchor="start" fill="#000" font-family="Suisse Works, Georgia, serif" font-size="12px">2019</text></g><g><rect x="717.5999999999999" y="347.74" height="23.05481283422455" width="24" fill="#d9d9d9" stroke="#fff"/><text x="749.5999999999999" y="359.2674064171123" dy="0.35em" text-anchor="start" fill="#000" font-family="Suisse Works, Georgia, serif" font-size="12px">2020</text></g><g><rect x="717.5999999999999" y="381.93333333333334" height="23.054812834224606" width="24" fill="#d9d9d9" stroke="#fff"/><text x="749.5999999999999" y="393.46073975044567" dy="0.35em" text-anchor="start" fill="#000" font-family="Suisse Works, Georgia, serif" font-size="12px">2021</text></g><g><rect x="717.5999999999999" y="416.12666666666667" height="23.054812834224663" width="24" fill="#d9d9d9" stroke="#fff"/><text x="749.5999999999999" y="427.654073083779" dy="0.35em" text-anchor="start" fill="#000" font-family="Suisse Works, Georgia, serif" font-size="12px">2022</text></g><g><rect x="717.5999999999999" y="450.32000000000005" height="22.59371657754002" width="24" fill="#d9d9d9" stroke="#fff"/><text x="749.5999999999999" y="461.61685828877006" dy="0.35em" text-anchor="start" fill="#000" font-family="Suisse Works, Georgia, serif" font-size="12px">2023</text></g><g><rect x="717.5999999999999" y="484.5133333333334" height="23.054812834224606" width="24" fill="#d9d9d9" stroke="#fff"/><text x="749.5999999999999" y="496.0407397504457" dy="0.35em" text-anchor="start" fill="#000" font-family="Suisse Works, Georgia, serif" font-size="12px">2024</text></g><g><rect x="717.5999999999999" y="518.7066666666667" height="22.59371657754002" width="24" fill="#d9d9d9" stroke="#fff"/><text x="749.5999999999999" y="530.0035249554367" dy="0.35em" text-anchor="start" fill="#000" font-family="Suisse Works, Georgia, serif" font-size="12px">2025</text></g><g><rect x="996.3999999999999" y="205.47459316245934" height="87.60828877005352" width="24" fill="#7a7a7a" stroke="#fff"/><text x="988.3999999999999" y="249.27873754748612" dy="0.35em" text-anchor="end" fill="#000" font-family="Suisse Works, Georgia, serif" font-size="12px">Precio / Personalización / Escasez</text></g><g><rect x="996.3999999999999" y="101.71643808224539" height="91.75815508021395" width="24" fill="#7a7a7a" stroke="#fff"/><text x="988.3999999999999" y="147.59551562235237" dy="0.35em" text-anchor="end" fill="#000" font-family="Suisse Works, Georgia, serif" font-size="12px">Comunidad y Patrimonio</text></g><g><rect x="996.3999999999999" y="305.08288193251286" height="106.97433155080216" width="24" fill="#7a7a7a" stroke="#fff"/><text x="988.3999999999999" y="358.57004770791394" dy="0.35em" text-anchor="end" fill="#000" font-family="Suisse Works, Georgia, serif" font-size="12px">Electrificación Selectiva</text></g><g><rect x="996.3999999999999" y="424.057213483315" height="69.6255347593584" width="24" fill="#7a7a7a" stroke="#fff"/><text x="988.3999999999999" y="458.8699808629942" dy="0.35em" text-anchor="end" fill="#000" font-family="Suisse Works, Georgia, serif" font-size="12px">Servicios Digitales y Suscripciones</text></g><g><rect x="1275.1999999999998" y="204.68073537505944" height="11.527406417112303" width="24" fill="#000" stroke="#fff"/><text x="1267.1999999999998" y="210.44443858361558" dy="0.35em" text-anchor="end" fill="#000" font-family="Suisse Works, Georgia, serif" font-size="12px">Ferrari dentro de Fiat</text></g><g><rect x="1275.1999999999998" y="100.95693049617954" height="11.527406417112275" width="24" fill="#000" stroke="#fff"/><text x="1267.1999999999998" y="106.72063370473568" dy="0.35em" text-anchor="end" fill="#000" font-family="Suisse Works, Georgia, serif" font-size="12px">IPO e Independencia</text></g><g><rect x="1275.1999999999998" y="304.2370354198422" height="11.527406417112331" width="24" fill="#000" stroke="#fff"/><text x="1267.1999999999998" y="310.0007386283984" dy="0.35em" text-anchor="end" fill="#000" font-family="Suisse Works, Georgia, serif" font-size="12px">Consolidación de lujo</text></g><g><rect x="1275.1999999999998" y="423.1437776639138" height="11.527406417112275" width="24" fill="#000" stroke="#fff"/><text x="1267.1999999999998" y="428.90748087246993" dy="0.35em" text-anchor="end" fill="#000" font-family="Suisse Works, Georgia, serif" font-size="12px">Electrificación y Servicios</text></g></g></g></svg>